<svg width="34" height="34" viewBox="0 0 34 34" fill="none" xmlns="http://www.w3.org/2000/svg">
<g id="Plus">
<path id="Plus_2" fill-rule="evenodd" clip-rule="evenodd" d="M9.01706 0.333496H24.5671C30.2337 0.333496 33.4671 3.5335 33.4671 9.21683V24.7835C33.4671 30.4335 30.2504 33.6668 24.5837 33.6668H9.01706C3.33373 33.6668 0.133728 30.4335 0.133728 24.7835V9.21683C0.133728 3.5335 3.33373 0.333496 9.01706 0.333496ZM18.1671 18.3835H22.9004C23.6671 18.3668 24.2837 17.7502 24.2837 16.9835C24.2837 16.2168 23.6671 15.6002 22.9004 15.6002H18.1671V10.9002C18.1671 10.1335 17.5504 9.51683 16.7837 9.51683C16.0171 9.51683 15.4004 10.1335 15.4004 10.9002V15.6002H10.6837C10.3171 15.6002 9.96706 15.7502 9.70039 16.0002C9.45039 16.2668 9.3004 16.6152 9.3004 16.9835C9.3004 17.7502 9.91706 18.3668 10.6837 18.3835H15.4004V23.1002C15.4004 23.8668 16.0171 24.4835 16.7837 24.4835C17.5504 24.4835 18.1671 23.8668 18.1671 23.1002V18.3835Z" fill="#29AAE1"/>
</g>
</svg>
