<svg width="248" height="56" viewBox="0 0 248 56" fill="none" xmlns="http://www.w3.org/2000/svg">
<g clip-path="url(#clip0_475_4895)">
<path d="M248 0H0V56H248V0Z" fill="white"/>
<path d="M31.2 12.36H29.91V7.39001C29.91 5.18001 28.12 3.39001 25.91 3.39001H13.09C10.88 3.39001 9.09 5.18001 9.09 7.39001V12.36H7.81C3.5 12.36 0 15.86 0 20.17V44.8C0 49.11 3.5 52.61 7.81 52.61H31.2C35.5 52.61 39.01 49.11 39.01 44.8V20.17C39.01 15.86 35.51 12.36 31.2 12.36ZM11.07 7.39001C11.07 6.28001 11.98 5.37001 13.09 5.37001H25.91C27.02 5.37001 27.93 6.28001 27.93 7.39001V20.8C27.93 21.91 27.03 22.82 25.92 22.82H13.09C11.98 22.82 11.08 21.91 11.08 20.8V7.39001H11.07ZM35.04 44.8C35.04 46.92 33.32 48.65 31.19 48.65H7.81C5.68 48.65 3.96 46.93 3.96 44.8V20.17C3.96 18.04 5.68 16.32 7.81 16.32H9.09V20.8C9.09 21.54 9.3 22.24 9.65 22.83C8.22 22.97 7.1 24.18 7.1 25.64V32.59C7.1 34.15 8.37 35.42 9.93 35.42H29.07C30.63 35.42 31.9 34.15 31.9 32.59V25.64C31.9 24.18 30.78 22.97 29.35 22.83C29.7 22.23 29.91 21.54 29.91 20.8V16.32H31.2C33.32 16.32 35.05 18.04 35.05 20.17V44.8H35.04Z" fill="#29AAE1"/>
<path d="M17.18 37.96H8.55999C7.82999 37.96 7.23999 38.55 7.23999 39.28C7.23999 40.01 7.82999 40.6 8.55999 40.6H17.18C17.91 40.6 18.5 40.01 18.5 39.28C18.5 38.55 17.91 37.96 17.18 37.96ZM21.83 40.6H30.45C31.18 40.6 31.77 40.01 31.77 39.28C31.77 38.55 31.18 37.96 30.45 37.96H21.83C21.1 37.96 20.51 38.55 20.51 39.28C20.51 40.01 21.1 40.6 21.83 40.6ZM17.18 43.2H8.55999C7.82999 43.2 7.23999 43.79 7.23999 44.52C7.23999 45.25 7.82999 45.84 8.55999 45.84H17.18C17.91 45.84 18.5 45.25 18.5 44.52C18.5 43.79 17.91 43.2 17.18 43.2ZM30.45 43.2H21.83C21.1 43.2 20.51 43.79 20.51 44.52C20.51 45.25 21.1 45.84 21.83 45.84H30.45C31.18 45.84 31.77 45.25 31.77 44.52C31.77 43.79 31.18 43.2 30.45 43.2Z" fill="#1A1A1A"/>
<path d="M52.01 43.04V16.7H63.22C64.73 16.7 66.11 17.07 67.38 17.81C68.65 18.55 69.66 19.55 70.41 20.82C71.16 22.09 71.54 23.51 71.54 25.09C71.54 26.52 71.16 27.85 70.41 29.08C69.66 30.31 68.65 31.29 67.4 32.03C66.15 32.77 64.75 33.14 63.22 33.14H56.07V43.04H52.01ZM56.07 29.23H63.6C64.33 29.23 64.98 29.05 65.56 28.68C66.14 28.32 66.59 27.81 66.91 27.17C67.24 26.53 67.4 25.82 67.4 25.04C67.4 24.16 67.19 23.39 66.78 22.73C66.37 22.07 65.79 21.54 65.05 21.17C64.31 20.79 63.48 20.61 62.55 20.61H56.08V29.23H56.07ZM67.66 43.04L60.96 31.15L65.14 30.21L72.59 43.08L67.66 43.04Z" fill="#1A1A1A"/>
<path d="M85.65 43.42C83.62 43.42 81.82 42.99 80.25 42.12C78.68 41.25 77.45 40.07 76.56 38.56C75.67 37.05 75.22 35.32 75.22 33.37C75.22 31.81 75.47 30.4 75.97 29.12C76.47 27.84 77.17 26.73 78.06 25.79C78.95 24.85 80.02 24.12 81.26 23.61C82.5 23.1 83.85 22.84 85.31 22.84C86.59 22.84 87.78 23.08 88.88 23.57C89.98 24.06 90.94 24.73 91.76 25.58C92.57 26.43 93.2 27.44 93.64 28.61C94.08 29.78 94.29 31.05 94.26 32.43L94.22 34.09H78.08L77.21 31H90.87L90.31 31.64V30.74C90.23 29.91 89.96 29.17 89.48 28.52C89 27.87 88.4 27.35 87.67 26.98C86.94 26.6 86.15 26.42 85.3 26.42C83.95 26.42 82.8 26.68 81.88 27.19C80.95 27.7 80.25 28.46 79.77 29.45C79.29 30.44 79.06 31.66 79.06 33.12C79.06 34.58 79.35 35.7 79.93 36.71C80.51 37.73 81.32 38.51 82.38 39.06C83.43 39.61 84.65 39.89 86.03 39.89C87.01 39.89 87.92 39.73 88.76 39.4C89.6 39.07 90.51 38.48 91.49 37.63L93.45 40.38C92.85 40.98 92.11 41.51 91.25 41.96C90.38 42.41 89.47 42.77 88.5 43.03C87.53 43.29 86.59 43.42 85.66 43.42H85.65Z" fill="#1A1A1A"/>
<path d="M106.08 43.42C104.45 43.42 102.96 42.97 101.62 42.07C100.28 41.17 99.21 39.94 98.4 38.38C97.6 36.82 97.2 35.07 97.2 33.11C97.2 31.15 97.61 29.37 98.42 27.82C99.23 26.28 100.34 25.07 101.73 24.19C103.12 23.31 104.68 22.87 106.41 22.87C107.44 22.87 108.38 23.02 109.23 23.32C110.08 23.62 110.83 24.04 111.47 24.58C112.11 25.12 112.64 25.74 113.05 26.44C113.46 27.14 113.72 27.9 113.82 28.7L112.95 28.4V23.28H116.86V43.03H112.95V38.33L113.85 38.07C113.7 38.75 113.39 39.41 112.93 40.05C112.47 40.69 111.88 41.26 111.16 41.76C110.45 42.26 109.65 42.66 108.79 42.96C107.92 43.26 107.01 43.41 106.06 43.41L106.08 43.42ZM107.1 39.85C108.28 39.85 109.32 39.56 110.22 38.98C111.12 38.4 111.83 37.61 112.35 36.59C112.86 35.57 113.12 34.41 113.12 33.11C113.12 31.81 112.86 30.69 112.35 29.69C111.84 28.69 111.13 27.9 110.22 27.32C109.32 26.74 108.28 26.45 107.1 26.45C105.92 26.45 104.92 26.74 104.03 27.32C103.14 27.9 102.44 28.69 101.92 29.69C101.41 30.69 101.15 31.83 101.15 33.11C101.15 34.39 101.41 35.57 101.92 36.59C102.43 37.61 103.14 38.4 104.03 38.98C104.92 39.56 105.94 39.85 107.1 39.85Z" fill="#1A1A1A"/>
<path d="M130.54 43.42C128.73 43.42 127.12 42.97 125.7 42.08C124.28 41.19 123.16 39.97 122.33 38.43C121.5 36.89 121.09 35.12 121.09 33.14C121.09 31.16 121.5 29.4 122.31 27.85C123.12 26.31 124.23 25.09 125.64 24.2C127.04 23.31 128.64 22.86 130.42 22.86C131.4 22.86 132.34 23.02 133.26 23.33C134.18 23.64 135 24.07 135.72 24.61C136.45 25.15 137.02 25.74 137.43 26.38C137.84 27.02 138.05 27.67 138.05 28.32L136.92 28.4V15.2H140.8V43.04H136.92V38.34H137.67C137.67 38.94 137.47 39.54 137.07 40.13C136.67 40.72 136.14 41.27 135.47 41.77C134.8 42.27 134.04 42.67 133.17 42.97C132.3 43.27 131.42 43.42 130.52 43.42H130.54ZM131.07 40.07C132.25 40.07 133.29 39.77 134.19 39.17C135.09 38.57 135.8 37.75 136.32 36.71C136.83 35.67 137.09 34.48 137.09 33.15C137.09 31.82 136.83 30.64 136.32 29.59C135.81 28.55 135.1 27.73 134.19 27.13C133.28 26.53 132.25 26.23 131.07 26.23C129.89 26.23 128.85 26.53 127.95 27.13C127.05 27.73 126.34 28.55 125.82 29.59C125.31 30.63 125.05 31.82 125.05 33.15C125.05 34.48 125.31 35.67 125.82 36.71C126.33 37.75 127.04 38.57 127.95 39.17C128.85 39.77 129.89 40.07 131.07 40.07Z" fill="#1A1A1A"/>
<path d="M149.46 51.69L153.45 42.47L153.49 45.56L143.63 23.28H148.15L154.32 37.8C154.45 38.05 154.6 38.43 154.77 38.95C154.95 39.46 155.1 39.97 155.22 40.47L154.24 40.7C154.44 40.17 154.63 39.65 154.82 39.12C155.01 38.59 155.19 38.07 155.37 37.54L160.53 23.28H165.12L156.99 43.03L153.64 51.68H149.46V51.69Z" fill="#1A1A1A"/>
<path d="M173.5 43.04V16.7H184.86C186.52 16.7 187.99 17.08 189.28 17.83C190.57 18.58 191.6 19.61 192.37 20.92C193.14 22.22 193.52 23.69 193.52 25.32C193.52 26.95 193.14 28.55 192.37 29.89C191.6 31.23 190.58 32.29 189.28 33.07C187.99 33.85 186.51 34.24 184.86 34.24H179.89V43.04H173.49H173.5ZM179.78 28.63H183.96C184.51 28.63 185.01 28.49 185.47 28.22C185.92 27.94 186.28 27.57 186.56 27.09C186.84 26.61 186.97 26.06 186.97 25.43C186.97 24.8 186.83 24.23 186.56 23.77C186.29 23.31 185.92 22.97 185.47 22.72C185.02 22.47 184.52 22.34 183.96 22.34H179.78V28.62V28.63Z" fill="#29AAE1"/>
<path d="M210.41 43.42C208.4 43.42 206.57 43.08 204.92 42.4C203.26 41.72 201.82 40.77 200.59 39.54C199.36 38.31 198.41 36.87 197.73 35.21C197.05 33.55 196.71 31.74 196.71 29.75C196.71 27.76 197.05 25.95 197.73 24.29C198.41 22.63 199.36 21.19 200.59 19.96C201.82 18.73 203.26 17.78 204.92 17.1C206.58 16.42 208.39 16.08 210.38 16.08C212.37 16.08 214.18 16.42 215.84 17.1C217.5 17.78 218.94 18.73 220.17 19.96C221.4 21.19 222.35 22.63 223.01 24.29C223.67 25.95 224.01 27.76 224.01 29.75C224.01 31.74 223.68 33.52 223.01 35.19C222.34 36.86 221.4 38.31 220.17 39.54C218.94 40.77 217.5 41.72 215.84 42.4C214.18 43.08 212.38 43.42 210.42 43.42H210.41ZM210.37 37.4C211.4 37.4 212.35 37.21 213.21 36.84C214.07 36.47 214.83 35.93 215.47 35.24C216.11 34.55 216.6 33.74 216.96 32.81C217.31 31.88 217.49 30.87 217.49 29.76C217.49 28.65 217.31 27.64 216.96 26.71C216.61 25.78 216.11 24.97 215.47 24.28C214.83 23.59 214.08 23.06 213.21 22.68C212.34 22.3 211.4 22.12 210.37 22.12C209.34 22.12 208.39 22.31 207.53 22.68C206.66 23.06 205.91 23.59 205.25 24.28C204.6 24.97 204.1 25.78 203.76 26.71C203.42 27.64 203.25 28.65 203.25 29.76C203.25 30.87 203.42 31.89 203.76 32.83C204.1 33.77 204.59 34.58 205.25 35.26C205.9 35.94 206.66 36.46 207.53 36.84C208.4 37.22 209.34 37.4 210.37 37.4Z" fill="#29AAE1"/>
<path d="M237.69 43.42C235.96 43.42 234.4 43.21 233.01 42.8C231.62 42.39 230.38 41.78 229.3 40.99C228.22 40.2 227.26 39.27 226.4 38.19L230.28 33.79C231.53 35.47 232.79 36.6 234.06 37.18C235.33 37.76 236.64 38.05 237.99 38.05C238.67 38.05 239.28 37.96 239.83 37.79C240.38 37.61 240.81 37.36 241.11 37.02C241.41 36.68 241.56 36.26 241.56 35.76C241.56 35.38 241.47 35.04 241.28 34.74C241.09 34.44 240.83 34.18 240.51 33.95C240.18 33.72 239.8 33.52 239.34 33.33C238.89 33.14 238.41 32.98 237.91 32.84C237.41 32.7 236.89 32.58 236.37 32.48C234.91 32.15 233.65 31.75 232.57 31.28C231.49 30.8 230.59 30.22 229.88 29.53C229.16 28.84 228.63 28.05 228.28 27.16C227.93 26.27 227.75 25.27 227.75 24.17C227.75 22.99 228.02 21.91 228.56 20.92C229.1 19.93 229.83 19.08 230.74 18.36C231.66 17.64 232.72 17.09 233.92 16.7C235.12 16.31 236.38 16.12 237.68 16.12C239.41 16.12 240.9 16.3 242.14 16.67C243.38 17.03 244.45 17.55 245.34 18.23C246.23 18.91 246.99 19.72 247.62 20.68L243.67 24.48C243.14 23.83 242.57 23.29 241.96 22.86C241.34 22.43 240.69 22.11 240 21.88C239.31 21.65 238.6 21.54 237.87 21.54C237.14 21.54 236.47 21.63 235.93 21.82C235.39 22.01 234.97 22.27 234.67 22.61C234.37 22.95 234.22 23.36 234.22 23.83C234.22 24.26 234.35 24.62 234.6 24.92C234.85 25.22 235.19 25.49 235.62 25.73C236.05 25.97 236.54 26.17 237.09 26.33C237.64 26.49 238.22 26.63 238.82 26.73C240.2 27.01 241.45 27.37 242.56 27.82C243.68 28.27 244.64 28.82 245.46 29.48C246.27 30.13 246.9 30.9 247.34 31.79C247.78 32.68 248 33.72 248 34.89C248 36.72 247.55 38.27 246.66 39.54C245.77 40.81 244.55 41.77 243.01 42.44C241.47 43.1 239.69 43.44 237.69 43.44V43.42Z" fill="#29AAE1"/>
</g>
<defs>
<clipPath id="clip0_475_4895">
<rect width="248" height="56" fill="white"/>
</clipPath>
</defs>
</svg>
